<?xml version="1.0" encoding="UTF-8"?>
<svg xmlns="http://www.w3.org/2000/svg" xmlns:xlink="http://www.w3.org/1999/xlink" width="2000" height="2000" viewBox="0 0 2000 2000">
<defs>
<radialGradient id="radial-pattern-0" gradientUnits="userSpaceOnUse" cx="0" cy="0" fx="0" fy="0" r="1191.32" gradientTransform="matrix(1, 0, 0, 1, 1000, 1000)">
<stop offset="0" stop-color="rgb(99.964905%, 99.938965%, 99.917603%)" stop-opacity="1"/>
<stop offset="0.125" stop-color="rgb(99.887085%, 99.798584%, 99.729919%)" stop-opacity="1"/>
<stop offset="0.179688" stop-color="rgb(99.781799%, 99.612427%, 99.479675%)" stop-opacity="1"/>
<stop offset="0.230469" stop-color="rgb(99.645996%, 99.37439%, 99.157715%)" stop-opacity="1"/>
<stop offset="0.277344" stop-color="rgb(99.536133%, 99.180603%, 98.895264%)" stop-opacity="1"/>
<stop offset="0.296875" stop-color="rgb(99.459839%, 99.046326%, 98.71521%)" stop-opacity="1"/>
<stop offset="0.316406" stop-color="rgb(99.378967%, 98.899841%, 98.518372%)" stop-opacity="1"/>
<stop offset="0.335938" stop-color="rgb(99.28894%, 98.742676%, 98.3078%)" stop-opacity="1"/>
<stop offset="0.355469" stop-color="rgb(99.19281%, 98.574829%, 98.078918%)" stop-opacity="1"/>
<stop offset="0.375" stop-color="rgb(99.090576%, 98.39325%, 97.834778%)" stop-opacity="1"/>
<stop offset="0.394531" stop-color="rgb(98.99292%, 98.220825%, 97.601318%)" stop-opacity="1"/>
<stop offset="0.410156" stop-color="rgb(98.901367%, 98.057556%, 97.381592%)" stop-opacity="1"/>
<stop offset="0.425781" stop-color="rgb(98.803711%, 97.885132%, 97.151184%)" stop-opacity="1"/>
<stop offset="0.441406" stop-color="rgb(98.703003%, 97.706604%, 96.910095%)" stop-opacity="1"/>
<stop offset="0.457031" stop-color="rgb(98.597717%, 97.518921%, 96.656799%)" stop-opacity="1"/>
<stop offset="0.472656" stop-color="rgb(98.486328%, 97.323608%, 96.392822%)" stop-opacity="1"/>
<stop offset="0.488281" stop-color="rgb(98.370361%, 97.119141%, 96.116638%)" stop-opacity="1"/>
<stop offset="0.503906" stop-color="rgb(98.266602%, 96.932983%, 95.866394%)" stop-opacity="1"/>
<stop offset="0.515625" stop-color="rgb(98.173523%, 96.768188%, 95.645142%)" stop-opacity="1"/>
<stop offset="0.527344" stop-color="rgb(98.077393%, 96.598816%, 95.41626%)" stop-opacity="1"/>
<stop offset="0.539062" stop-color="rgb(97.97821%, 96.424866%, 95.181274%)" stop-opacity="1"/>
<stop offset="0.550781" stop-color="rgb(97.877502%, 96.244812%, 94.940186%)" stop-opacity="1"/>
<stop offset="0.5625" stop-color="rgb(97.772217%, 96.061707%, 94.691467%)" stop-opacity="1"/>
<stop offset="0.574219" stop-color="rgb(97.665405%, 95.872498%, 94.436646%)" stop-opacity="1"/>
<stop offset="0.585938" stop-color="rgb(97.555542%, 95.677185%, 94.174194%)" stop-opacity="1"/>
<stop offset="0.597656" stop-color="rgb(97.442627%, 95.477295%, 93.90564%)" stop-opacity="1"/>
<stop offset="0.609375" stop-color="rgb(97.328186%, 95.272827%, 93.629456%)" stop-opacity="1"/>
<stop offset="0.621094" stop-color="rgb(97.209167%, 95.063782%, 93.347168%)" stop-opacity="1"/>
<stop offset="0.632812" stop-color="rgb(97.108459%, 94.885254%, 93.106079%)" stop-opacity="1"/>
<stop offset="0.640625" stop-color="rgb(97.026062%, 94.740295%, 92.910767%)" stop-opacity="1"/>
<stop offset="0.648438" stop-color="rgb(96.942139%, 94.592285%, 92.710876%)" stop-opacity="1"/>
<stop offset="0.65625" stop-color="rgb(96.858215%, 94.441223%, 92.507935%)" stop-opacity="1"/>
<stop offset="0.664062" stop-color="rgb(96.77124%, 94.288635%, 92.303467%)" stop-opacity="1"/>
<stop offset="0.671875" stop-color="rgb(96.684265%, 94.134521%, 92.094421%)" stop-opacity="1"/>
<stop offset="0.679688" stop-color="rgb(96.594238%, 93.977356%, 91.882324%)" stop-opacity="1"/>
<stop offset="0.6875" stop-color="rgb(96.504211%, 93.817139%, 91.667175%)" stop-opacity="1"/>
<stop offset="0.695312" stop-color="rgb(96.412659%, 93.655396%, 91.448975%)" stop-opacity="1"/>
<stop offset="0.703125" stop-color="rgb(96.31958%, 93.490601%, 91.227722%)" stop-opacity="1"/>
<stop offset="0.710938" stop-color="rgb(96.226501%, 93.32428%, 91.001892%)" stop-opacity="1"/>
<stop offset="0.71875" stop-color="rgb(96.130371%, 93.154907%, 90.774536%)" stop-opacity="1"/>
<stop offset="0.726562" stop-color="rgb(96.034241%, 92.982483%, 90.542603%)" stop-opacity="1"/>
<stop offset="0.734375" stop-color="rgb(95.935059%, 92.810059%, 90.309143%)" stop-opacity="1"/>
<stop offset="0.742188" stop-color="rgb(95.835876%, 92.633057%, 90.071106%)" stop-opacity="1"/>
<stop offset="0.75" stop-color="rgb(95.735168%, 92.454529%, 89.830017%)" stop-opacity="1"/>
<stop offset="0.757812" stop-color="rgb(95.606995%, 92.227173%, 89.523315%)" stop-opacity="1"/>
<stop offset="0.769531" stop-color="rgb(95.449829%, 91.949463%, 89.149475%)" stop-opacity="1"/>
<stop offset="0.78125" stop-color="rgb(95.289612%, 91.667175%, 88.769531%)" stop-opacity="1"/>
<stop offset="0.792969" stop-color="rgb(95.181274%, 91.47644%, 88.511658%)" stop-opacity="1"/>
<stop offset="0.796875" stop-color="rgb(95.127869%, 91.38031%, 88.381958%)" stop-opacity="1"/>
<stop offset="0.800781" stop-color="rgb(95.072937%, 91.282654%, 88.250732%)" stop-opacity="1"/>
<stop offset="0.804688" stop-color="rgb(94.972229%, 91.105652%, 88.012695%)" stop-opacity="1"/>
<stop offset="1" stop-color="rgb(94.900513%, 90.979004%, 87.841797%)" stop-opacity="1"/>
</radialGradient>
</defs>
<rect x="-200" y="-200" width="2400" height="2400" fill="url(#radial-pattern-0)"/>
<path fill-rule="nonzero" fill="rgb(19.993591%, 19.993591%, 19.993591%)" fill-opacity="1" d="M 687.734375 1237.558594 C 837.644531 1140.328125 985.988281 1040.640625 1134.941406 941.949219 C 1209.929688 892.269531 1284.929688 842.578125 1359.910156 792.890625 C 1396.859375 768.410156 1433.808594 743.921875 1470.75 719.429688 C 1505.03125 696.71875 1538.828125 672.589844 1575.289062 653.441406 C 1608.929688 635.761719 1646.109375 622.648438 1684.601562 624.789062 C 1716.050781 626.539062 1748.421875 637.960938 1770.21875 661.460938 C 1793.890625 686.960938 1799.03125 723.011719 1790.671875 755.929688 C 1781.769531 790.929688 1759.96875 819.878906 1731.929688 842.019531 C 1702.140625 865.550781 1666.738281 881.539062 1632.050781 896.371094 C 1590.898438 913.960938 1549.570312 931.148438 1508.339844 948.539062 C 1425.96875 983.289062 1343.589844 1018.011719 1261.269531 1052.871094 C 1094.890625 1123.328125 928.519531 1193.789062 762.144531 1264.25 C 741.464844 1273 720.785156 1281.761719 700.105469 1290.519531 C 691.894531 1293.988281 698.972656 1305.96875 707.121094 1302.519531 C 878.195312 1230.070312 1049.269531 1157.621094 1220.351562 1085.171875 C 1305.878906 1048.949219 1391.371094 1012.648438 1476.851562 976.308594 C 1519.109375 958.339844 1561.378906 940.378906 1603.640625 922.378906 C 1640.53125 906.671875 1678.421875 891.871094 1712.320312 870.171875 C 1742.511719 850.828125 1769.828125 826.398438 1786.699219 794.320312 C 1802.320312 764.609375 1809.648438 728.898438 1800.199219 696.078125 C 1781.890625 632.460938 1709.261719 608.128906 1649.269531 617.929688 C 1609.171875 624.488281 1572.390625 643.878906 1538.300781 665.199219 C 1501.269531 688.359375 1465.25 713.210938 1428.859375 737.351562 C 1352.308594 788.148438 1275.75 838.949219 1199.191406 889.738281 C 1045.941406 991.410156 892.460938 1092.75 739.558594 1194.949219 C 721.164062 1207.238281 702.785156 1219.558594 684.472656 1231.980469 C 681.058594 1234.289062 684.21875 1239.839844 687.734375 1237.558594 "/>
<path fill-rule="nonzero" fill="rgb(19.993591%, 19.993591%, 19.993591%)" fill-opacity="1" d="M 337.816406 1418.210938 C 388.6875 1391.609375 437.898438 1361.679688 487.515625 1332.839844 C 512.070312 1318.570312 536.621094 1304.289062 561.171875 1290.019531 C 584.917969 1276.21875 608.230469 1261.039062 632.75 1248.648438 C 653.460938 1238.191406 679.914062 1232.449219 698.898438 1249.820312 C 720.460938 1269.550781 701.15625 1297.050781 682.804688 1310.199219 C 672.398438 1317.660156 660.511719 1322.820312 649.066406 1328.449219 C 636.320312 1334.71875 623.542969 1340.921875 610.714844 1347.019531 C 584.582031 1359.441406 558.488281 1371.949219 532.195312 1384.03125 C 503.128906 1397.378906 474.1875 1410.960938 445.242188 1424.578125 C 430.550781 1431.488281 415.851562 1438.378906 401.144531 1445.261719 C 386.546875 1452.089844 371.140625 1458.128906 357.734375 1467.101562 C 354.070312 1469.550781 356.253906 1475.839844 360.847656 1474.488281 C 375.324219 1470.210938 388.800781 1462.910156 402.414062 1456.449219 C 416.613281 1449.699219 430.808594 1442.941406 444.992188 1436.160156 C 472.898438 1422.828125 500.773438 1409.460938 528.4375 1395.628906 C 556.097656 1381.808594 583.890625 1368.261719 611.617188 1354.578125 C 625.261719 1347.839844 638.933594 1341.171875 652.644531 1334.558594 C 665.269531 1328.480469 678.429688 1322.800781 690.238281 1315.191406 C 708.28125 1303.570312 723.042969 1280.578125 715.148438 1258.640625 C 708.277344 1239.539062 686.902344 1230.070312 667.652344 1231.148438 C 641.441406 1232.609375 618.414062 1248.230469 596.359375 1260.890625 C 569.71875 1276.179688 543.140625 1291.578125 516.558594 1306.96875 C 455.921875 1342.078125 394.164062 1375.859375 335.148438 1413.648438 C 332.285156 1415.488281 334.796875 1419.789062 337.816406 1418.210938 "/>
<path fill-rule="nonzero" fill="rgb(19.993591%, 19.993591%, 19.993591%)" fill-opacity="1" d="M 344.050781 1440.089844 C 351.40625 1452.078125 360.628906 1465.339844 357.832031 1480.179688 C 355.648438 1491.769531 347.0625 1501.308594 336.761719 1506.589844 C 313.441406 1518.550781 288.011719 1503.75 275.28125 1483.421875 C 262.816406 1463.511719 260.855469 1434.449219 276.742188 1415.691406 C 289.785156 1400.28125 319.386719 1395.960938 332.195312 1414.230469 C 336.804688 1420.789062 346.136719 1413.800781 340.996094 1407.441406 C 327.851562 1391.171875 304.910156 1387.578125 286.125 1395.648438 C 264.597656 1404.898438 254.136719 1428.609375 254.894531 1451.109375 C 255.691406 1474.808594 267.925781 1497.960938 288.226562 1510.601562 C 307.375 1522.53125 331.800781 1521.738281 349.277344 1507.148438 C 358.226562 1499.691406 364.632812 1488.78125 365.101562 1476.980469 C 365.691406 1462.140625 356.953125 1448.871094 348.328125 1437.578125 C 346.453125 1435.128906 342.332031 1437.28125 344.050781 1440.089844 "/>
<path fill-rule="nonzero" fill="rgb(19.993591%, 19.993591%, 19.993591%)" fill-opacity="1" d="M 1531.488281 948.460938 C 1557.679688 905.019531 1586.398438 864.148438 1625.578125 831.339844 C 1661.898438 800.941406 1705.511719 778.488281 1752.910156 772.710938 C 1751.949219 771.441406 1750.980469 770.171875 1750.011719 768.910156 C 1742.550781 800.769531 1731.148438 832.410156 1711.378906 858.808594 C 1708.941406 862.058594 1714.429688 865.238281 1716.839844 862 C 1736.800781 835.148438 1748.289062 802.828125 1755.808594 770.511719 C 1756.210938 768.808594 1754.949219 766.449219 1752.910156 766.699219 C 1705.441406 772.539062 1662.050781 794.128906 1625.210938 824.109375 C 1585.289062 856.601562 1549.929688 899.789062 1528.261719 946.570312 C 1527.269531 948.71875 1530.21875 950.558594 1531.488281 948.460938 "/>
<path fill-rule="nonzero" fill="rgb(19.993591%, 19.993591%, 19.993591%)" fill-opacity="1" d="M 1416 992.328125 C 1440.488281 970.230469 1463.050781 946.058594 1486.191406 922.570312 C 1508.910156 899.511719 1532.089844 876.921875 1555.660156 854.738281 C 1601.949219 811.171875 1651.539062 770.28125 1707.300781 739.28125 C 1721.109375 731.601562 1735.460938 725 1750.558594 720.28125 C 1766.25 715.378906 1782.460938 712.980469 1798.691406 710.679688 C 1801.738281 710.238281 1800.949219 705.359375 1797.980469 705.378906 C 1739.5 705.851562 1687.390625 741.410156 1641.550781 774.039062 C 1587.421875 812.578125 1539.359375 860.191406 1493.050781 907.628906 C 1466.421875 934.910156 1439.949219 962.378906 1413.609375 989.941406 C 1412.101562 991.519531 1414.390625 993.78125 1416 992.328125 "/>
<path fill-rule="nonzero" fill="rgb(19.993591%, 19.993591%, 19.993591%)" fill-opacity="1" d="M 1280.488281 1051.148438 C 1312.800781 1027.628906 1341.78125 999.121094 1370.140625 971.058594 C 1398.78125 942.730469 1426.441406 913.441406 1454.050781 884.109375 C 1508.921875 825.828125 1564.03125 767.210938 1625.539062 715.789062 C 1660.628906 686.460938 1697.921875 659.789062 1737.839844 637.429688 C 1742.070312 635.050781 1738.269531 628.519531 1734.03125 630.910156 C 1592.460938 710.679688 1490.390625 840.609375 1378.199219 954.78125 C 1346.140625 987.410156 1312.121094 1017.621094 1278.53125 1048.621094 C 1277.210938 1049.839844 1278.980469 1052.25 1280.488281 1051.148438 "/>
<path fill-rule="nonzero" fill="rgb(19.993591%, 19.993591%, 19.993591%)" fill-opacity="1" d="M 1126.410156 1119.710938 C 1178.960938 1089.820312 1221.53125 1042.421875 1259.25 996.019531 C 1299.839844 946.089844 1338.328125 893.871094 1374.601562 840.738281 C 1385.550781 824.699219 1396.25 808.5 1406.691406 792.121094 C 1417.058594 775.859375 1429.421875 759.320312 1436.621094 741.359375 C 1437.621094 738.859375 1433.738281 736.648438 1432.058594 738.710938 C 1421.511719 751.519531 1413.859375 767 1405.078125 781.070312 C 1395.828125 795.890625 1386.371094 810.578125 1376.699219 825.140625 C 1357.921875 853.429688 1338.269531 881.089844 1318.109375 908.410156 C 1282.011719 957.320312 1246.03125 1006.699219 1203.371094 1050.199219 C 1179.160156 1074.890625 1152.71875 1096.46875 1124.308594 1116.121094 C 1122.128906 1117.621094 1124.039062 1121.058594 1126.410156 1119.710938 "/>
<path fill-rule="nonzero" fill="rgb(19.993591%, 19.993591%, 19.993591%)" fill-opacity="1" d="M 974.675781 1180.640625 C 970.582031 1176.238281 980.839844 1171.109375 983.550781 1169.191406 C 986.757812 1166.921875 989.96875 1164.648438 993.183594 1162.390625 C 1000.339844 1157.359375 1007.519531 1152.351562 1014.691406 1147.339844 C 1028.691406 1137.558594 1042.691406 1127.78125 1056.46875 1117.691406 C 1082.648438 1098.511719 1108.21875 1078.320312 1131.609375 1055.78125 C 1154.070312 1034.121094 1173.808594 1010.328125 1190.570312 984.019531 C 1206.238281 959.429688 1219.839844 933.601562 1235.039062 908.738281 C 1252.5 880.179688 1272.320312 852.261719 1299.46875 832.109375 C 1303.328125 829.238281 1299.550781 822.691406 1295.660156 825.601562 C 1240.308594 867.039062 1216.210938 934.53125 1179.121094 990.398438 C 1135.671875 1055.839844 1069.589844 1101.550781 1006.5 1146.300781 C 997.230469 1152.878906 987.953125 1159.460938 978.734375 1166.121094 C 973.96875 1169.558594 966.335938 1173.960938 966.949219 1180.839844 C 967.898438 1191.519531 982.597656 1182.980469 976.289062 1178.550781 C 975.011719 1177.648438 973.6875 1179.570312 974.675781 1180.640625 "/>
<path fill-rule="nonzero" fill="rgb(19.993591%, 19.993591%, 19.993591%)" fill-opacity="1" d="M 845.6875 1236.570312 C 924.632812 1175.699219 994.886719 1101.53125 1057.058594 1023.851562 C 1074.050781 1002.609375 1091.128906 981.070312 1106.011719 958.269531 C 1108.019531 955.191406 1103.28125 952.628906 1101.171875 955.441406 C 1071.421875 995.078125 1041.960938 1034.46875 1009.191406 1071.71875 C 976.269531 1109.140625 941.414062 1144.75 904.964844 1178.730469 C 884.847656 1197.488281 864.074219 1215.441406 843.160156 1233.300781 C 841.386719 1234.808594 843.804688 1238.019531 845.6875 1236.570312 "/>
<path fill-rule="nonzero" fill="rgb(19.993591%, 19.993591%, 19.993591%)" fill-opacity="1" d="M 983.910156 1035.398438 C 954.550781 1060.769531 941.011719 1099.558594 912.664062 1125.929688 C 886.097656 1150.628906 852.449219 1166.988281 819.667969 1181.761719 C 820.839844 1181.761719 822.011719 1181.761719 823.1875 1181.761719 C 811.121094 1172.578125 814.136719 1157.078125 822.300781 1146.71875 C 824.226562 1144.28125 821.867188 1140.519531 818.816406 1142.210938 C 801.902344 1151.558594 806.265625 1177.71875 819.667969 1187.78125 C 820.683594 1188.539062 822.148438 1188.289062 823.1875 1187.78125 C 855.382812 1171.800781 888.382812 1156.289062 915.167969 1131.78125 C 928.636719 1119.460938 938.601562 1105.078125 948.554688 1089.910156 C 960.390625 1071.871094 973.195312 1054.980469 986.601562 1038.089844 C 988.109375 1036.199219 985.800781 1033.769531 983.910156 1035.398438 "/>
<path fill-rule="nonzero" fill="rgb(19.993591%, 19.993591%, 19.993591%)" fill-opacity="1" d="M 910.101562 1085.929688 C 896.863281 1093.761719 884.300781 1102.980469 872.859375 1113.28125 C 862.191406 1122.878906 852.007812 1133.601562 846.734375 1147.140625 C 845.933594 1149.191406 849.058594 1150.960938 850.457031 1149.308594 C 859.679688 1138.378906 868.027344 1127.011719 878.640625 1117.320312 C 889.511719 1107.390625 901.640625 1099.019531 913.148438 1089.878906 C 915.414062 1088.078125 912.507812 1084.5 910.101562 1085.929688 "/>
<path fill-rule="nonzero" fill="rgb(19.993591%, 19.993591%, 19.993591%)" fill-opacity="1" d="M 776.929688 1173.929688 C 747.546875 1177.109375 738.90625 1216.679688 755.179688 1237.828125 C 764.8125 1250.351562 781.59375 1256.03125 796.898438 1256.558594 C 810.683594 1257.03125 832.742188 1252.878906 839.601562 1238.96875 C 840.964844 1236.210938 838.234375 1233.519531 835.480469 1234.851562 C 829.808594 1237.601562 825.136719 1241.628906 819.078125 1243.878906 C 812.917969 1246.160156 806.480469 1247.378906 799.90625 1247.5 C 787.195312 1247.730469 772.996094 1243.988281 763.976562 1234.519531 C 748.492188 1218.269531 755.363281 1185.71875 777.714844 1179.75 C 780.84375 1178.921875 780.335938 1173.558594 776.929688 1173.929688 "/>
<path fill-rule="nonzero" fill="rgb(19.993591%, 19.993591%, 19.993591%)" fill-opacity="1" d="M 732.78125 1202.640625 C 719.871094 1213.058594 714.433594 1229.230469 716.09375 1245.601562 C 717.527344 1259.769531 724.871094 1277.839844 738.925781 1283.761719 C 741.625 1284.898438 743.359375 1280.949219 741.617188 1279.140625 C 736.8125 1274.128906 731.8125 1270.289062 728.308594 1264.089844 C 724.796875 1257.878906 722.765625 1250.851562 722.164062 1243.761719 C 720.992188 1229.839844 725.464844 1215.230469 735.066406 1204.929688 C 736.515625 1203.371094 734.371094 1201.359375 732.78125 1202.640625 "/>
<path fill-rule="nonzero" fill="rgb(19.993591%, 19.993591%, 19.993591%)" fill-opacity="1" d="M 1694.179688 809.109375 C 1686.539062 821.03125 1677.351562 831.761719 1666.671875 841.050781 C 1655.859375 850.460938 1642.980469 856.070312 1631.710938 864.578125 C 1627.511719 867.75 1629.78125 874.730469 1635.429688 873.398438 C 1649.570312 870.089844 1662.890625 859.121094 1673.578125 849.671875 C 1685.140625 839.441406 1695 827.449219 1703.109375 814.328125 C 1706.628906 808.640625 1697.761719 803.53125 1694.179688 809.109375 "/>
<path fill-rule="nonzero" fill="rgb(19.993591%, 19.993591%, 19.993591%)" fill-opacity="1" d="M 378.632812 1391.808594 C 384.132812 1401.300781 388.308594 1411.53125 390.628906 1422.269531 C 391.777344 1427.609375 392.425781 1432.988281 392.585938 1438.449219 C 392.738281 1443.5 391.792969 1448.628906 393.019531 1453.550781 C 393.910156 1457.101562 399.617188 1458.21875 401.292969 1454.628906 C 405.789062 1444.988281 403.0625 1430.878906 400.859375 1420.769531 C 398.226562 1408.679688 393.324219 1397.5 386.355469 1387.289062 C 383.144531 1382.589844 375.710938 1386.761719 378.632812 1391.808594 "/>
<path fill-rule="nonzero" fill="rgb(19.993591%, 19.993591%, 19.993591%)" fill-opacity="1" d="M 427.648438 1362.949219 C 436.648438 1384.121094 440.644531 1404.371094 433.277344 1426.839844 C 431.351562 1432.710938 440.640625 1435.261719 442.527344 1429.390625 C 449.667969 1407.179688 448.734375 1378.449219 434.441406 1358.980469 C 431.40625 1354.851562 425.671875 1358.300781 427.648438 1362.949219 "/>
<path fill-rule="nonzero" fill="rgb(19.993591%, 19.993591%, 19.993591%)" fill-opacity="1" d="M 462.980469 1343.609375 C 467.078125 1355.269531 471.296875 1366.421875 472.503906 1378.851562 C 473.683594 1391.050781 472.640625 1403.320312 469.722656 1415.199219 C 468.183594 1421.460938 477.800781 1424.128906 479.382812 1417.859375 C 485.628906 1393.128906 484.132812 1362.609375 469.773438 1340.738281 C 467.582031 1337.410156 461.511719 1339.429688 462.980469 1343.609375 "/>
<path fill-rule="nonzero" fill="rgb(19.993591%, 19.993591%, 19.993591%)" fill-opacity="1" d="M 502.84375 1318.410156 C 501.238281 1331.101562 504.695312 1344.578125 504.890625 1357.390625 C 505.09375 1370.609375 503.289062 1383.421875 502.253906 1396.539062 C 501.824219 1401.96875 510.621094 1403.148438 511.777344 1397.828125 C 514.707031 1384.320312 514.824219 1369.710938 514.28125 1355.929688 C 513.78125 1343.328125 513.625 1328.390625 507.261719 1317.210938 C 505.988281 1314.96875 503.121094 1316.238281 502.84375 1318.410156 "/>
<path fill-rule="nonzero" fill="rgb(19.993591%, 19.993591%, 19.993591%)" fill-opacity="1" d="M 545.328125 1297.429688 C 553.066406 1323.691406 552.890625 1350.148438 542.792969 1375.789062 C 540.15625 1382.488281 551.007812 1385.429688 553.601562 1378.761719 C 563.910156 1352.238281 565.078125 1321.558594 554.78125 1294.820312 C 552.566406 1289.058594 543.507812 1291.25 545.328125 1297.429688 "/>
<path fill-rule="nonzero" fill="rgb(19.993591%, 19.993591%, 19.993591%)" fill-opacity="1" d="M 580.785156 1275.789062 C 583.542969 1289.171875 586.457031 1302.101562 586.945312 1315.828125 C 587.429688 1329.53125 585.988281 1342.640625 583.566406 1356.101562 C 582.402344 1362.539062 591.777344 1365.378906 593.539062 1358.851562 C 600.6875 1332.351562 599.652344 1297.800781 588.464844 1272.550781 C 586.441406 1267.980469 579.878906 1271.390625 580.785156 1275.789062 "/>
<path fill-rule="nonzero" fill="rgb(19.993591%, 19.993591%, 19.993591%)" fill-opacity="1" d="M 623.414062 1253.378906 C 631.019531 1265.058594 636.539062 1277.511719 638.875 1291.308594 C 640.015625 1298.039062 640.304688 1304.910156 639.832031 1311.730469 C 639.363281 1318.441406 636.386719 1325.378906 636.824219 1332.011719 C 637.144531 1336.808594 642.632812 1337.898438 645.359375 1334.320312 C 649.589844 1328.769531 649.980469 1319.730469 650.496094 1312.941406 C 651.089844 1305.179688 650.601562 1297.359375 649.296875 1289.691406 C 646.707031 1274.488281 640.039062 1259.96875 629.929688 1248.351562 C 626.847656 1244.808594 620.847656 1249.429688 623.414062 1253.378906 "/>
<path fill-rule="nonzero" fill="rgb(19.993591%, 19.993591%, 19.993591%)" fill-opacity="1" d="M 661.28125 1241.25 C 663.511719 1254.03125 667.367188 1266.058594 667.957031 1279.140625 C 668.234375 1285.351562 668.058594 1291.601562 667.378906 1297.769531 C 666.710938 1303.878906 664.550781 1309.96875 664.886719 1316.109375 C 665.136719 1320.691406 671.128906 1322.570312 673.621094 1318.480469 C 680.171875 1307.710938 679.476562 1289.949219 678.644531 1277.808594 C 677.738281 1264.53125 675.339844 1249.78125 668.078125 1238.390625 C 665.726562 1234.699219 660.570312 1237.171875 661.28125 1241.25 "/>
<path fill-rule="nonzero" fill="rgb(19.993591%, 19.993591%, 19.993591%)" fill-opacity="1" d="M 1225.710938 1078.308594 C 1241.601562 1063.679688 1256.828125 1048.300781 1272.289062 1033.210938 C 1286.53125 1019.300781 1300.761719 1005.371094 1314.839844 991.300781 C 1342.960938 963.179688 1370.488281 934.421875 1396.21875 904.070312 C 1421.238281 874.539062 1444.210938 843.359375 1464.558594 810.429688 C 1482.738281 781 1499.429688 750.621094 1518.808594 721.941406 C 1537.640625 694.089844 1559.140625 667.449219 1586.148438 647.109375 C 1589.53125 644.558594 1592.738281 642.011719 1595.898438 639.210938 C 1597.789062 637.53125 1595.390625 634.910156 1593.351562 635.890625 C 1585.578125 639.660156 1578.871094 645.191406 1572.300781 650.761719 C 1565.96875 656.128906 1559.921875 661.839844 1554.160156 667.820312 C 1542.390625 680.039062 1531.78125 693.328125 1521.980469 707.171875 C 1501.988281 735.390625 1485.128906 765.648438 1467.378906 795.28125 C 1447.71875 828.089844 1426.089844 859.441406 1401.960938 889.140625 C 1376.871094 920.011719 1349.898438 949.28125 1322.179688 977.789062 C 1293.558594 1007.230469 1264.191406 1035.929688 1235.148438 1064.949219 C 1231.339844 1068.75 1227.550781 1072.550781 1223.851562 1076.449219 C 1222.671875 1077.679688 1224.460938 1079.460938 1225.710938 1078.308594 "/>
<path fill-rule="nonzero" fill="rgb(19.993591%, 19.993591%, 19.993591%)" fill-opacity="1" d="M 1061.921875 1148.199219 C 1068.929688 1143.929688 1075.03125 1138.359375 1081.328125 1133.109375 C 1087.109375 1128.269531 1092.890625 1123.441406 1098.671875 1118.601562 C 1110.191406 1108.929688 1121.691406 1099.21875 1132.988281 1089.289062 C 1155.511719 1069.488281 1177.398438 1048.878906 1197.800781 1026.878906 C 1218.390625 1004.671875 1237.199219 980.910156 1253.730469 955.53125 C 1270.851562 929.230469 1285.539062 901.480469 1299.339844 873.328125 C 1305.671875 860.410156 1311.550781 847.238281 1318.378906 834.570312 C 1324.640625 822.960938 1331.921875 811.71875 1341.71875 802.761719 C 1344.039062 800.640625 1346.488281 798.679688 1349.078125 796.890625 C 1352.320312 794.640625 1349.238281 789.28125 1345.960938 791.558594 C 1323.230469 807.300781 1311.96875 833.390625 1300.519531 857.550781 C 1287.039062 885.988281 1272.96875 914.230469 1256.769531 941.230469 C 1241.03125 967.46875 1222.898438 991.980469 1202.601562 1014.871094 C 1182.699219 1037.308594 1161.128906 1058.210938 1138.878906 1078.300781 C 1116.28125 1098.71875 1093.179688 1118.601562 1069.980469 1138.339844 C 1066.78125 1141.070312 1063.769531 1143.820312 1060.929688 1146.921875 C 1060.328125 1147.578125 1061.101562 1148.699219 1061.921875 1148.199219 "/>
<path fill-rule="nonzero" fill="rgb(19.993591%, 19.993591%, 19.993591%)" fill-opacity="1" d="M 903.742188 1216.710938 C 915.480469 1206.738281 926.695312 1196.121094 938.058594 1185.71875 C 949.429688 1175.320312 960.824219 1164.949219 972.265625 1154.628906 C 995.054688 1134.078125 1018.03125 1113.730469 1041.371094 1093.808594 C 1061.730469 1076.441406 1082.601562 1059.558594 1100.910156 1039.980469 C 1109.851562 1030.410156 1118.179688 1020.21875 1125.378906 1009.269531 C 1132.25 998.808594 1137.769531 987.628906 1142.851562 976.210938 C 1152.488281 954.558594 1161.039062 931.21875 1177.660156 913.761719 C 1179.671875 911.648438 1181.78125 909.640625 1183.960938 907.71875 C 1186.988281 905.070312 1182.589844 900.730469 1179.558594 903.320312 C 1161.089844 919.128906 1151.230469 942.128906 1141.871094 963.96875 C 1137.101562 975.089844 1132.339844 986.25 1126.429688 996.820312 C 1119.988281 1008.328125 1112.230469 1019.050781 1103.648438 1029.058594 C 1086.308594 1049.300781 1066.011719 1066.71875 1045.839844 1084.050781 C 1022.859375 1103.789062 1000.070312 1123.730469 977.566406 1144.011719 C 954.675781 1164.628906 931.886719 1185.378906 909.429688 1206.46875 C 906.691406 1209.050781 903.96875 1211.621094 901.304688 1214.28125 C 899.710938 1215.859375 902.074219 1218.128906 903.742188 1216.710938 "/>
<path fill-rule="nonzero" fill="rgb(19.993591%, 19.993591%, 19.993591%)" fill-opacity="1" d="M 1189.429688 900.488281 C 1188.558594 903.960938 1188.199219 907.570312 1187.421875 911.058594 C 1186.671875 914.351562 1185.75 917.601562 1184.648438 920.789062 C 1183.511719 924.101562 1182.160156 927.320312 1180.660156 930.480469 C 1179.210938 933.539062 1177.039062 936.5 1176.058594 939.730469 C 1175.820312 940.5 1176.808594 941.011719 1177.359375 940.488281 C 1179.78125 938.199219 1181.25 934.628906 1182.679688 931.671875 C 1184.238281 928.441406 1185.578125 925.101562 1186.738281 921.710938 C 1187.898438 918.308594 1188.859375 914.828125 1189.621094 911.320312 C 1190.351562 907.898438 1191.128906 904.21875 1190.988281 900.710938 C 1190.949219 899.839844 1189.660156 899.601562 1189.429688 900.488281 "/>
<path fill-rule="nonzero" fill="rgb(19.993591%, 19.993591%, 19.993591%)" fill-opacity="1" d="M 1206.75 890.398438 C 1204.941406 895.300781 1203.421875 900.289062 1201.949219 905.308594 C 1201.238281 907.71875 1200.539062 910.128906 1199.828125 912.539062 C 1199.109375 914.988281 1198.238281 917.5 1198.070312 920.058594 C 1198.03125 920.75 1199.050781 921 1199.371094 920.410156 C 1200.589844 918.160156 1201.191406 915.558594 1201.890625 913.109375 C 1202.578125 910.691406 1203.269531 908.28125 1203.960938 905.859375 C 1205.398438 900.839844 1206.769531 895.808594 1207.859375 890.699219 C 1208.011719 889.96875 1207 889.710938 1206.75 890.398438 "/>
<path fill-rule="nonzero" fill="rgb(19.993591%, 19.993591%, 19.993591%)" fill-opacity="1" d="M 1219.929688 878.058594 C 1218.390625 883.050781 1216.839844 888.03125 1215.308594 893.019531 C 1214.578125 895.421875 1213.921875 897.851562 1213.21875 900.261719 C 1212.53125 902.691406 1211.511719 905.230469 1211.511719 907.78125 C 1211.511719 908.421875 1212.359375 908.628906 1212.691406 908.101562 C 1214.03125 905.929688 1214.511719 903.230469 1215.199219 900.808594 C 1215.890625 898.390625 1216.601562 895.980469 1217.25 893.558594 C 1218.601562 888.511719 1219.910156 883.46875 1221.238281 878.421875 C 1221.46875 877.570312 1220.191406 877.21875 1219.929688 878.058594 "/>
<path fill-rule="nonzero" fill="rgb(19.993591%, 19.993591%, 19.993591%)" fill-opacity="1" d="M 1231.300781 872.109375 C 1230.679688 876.53125 1229.679688 880.871094 1228.339844 885.128906 C 1227.660156 887.28125 1226.878906 889.390625 1225.980469 891.460938 C 1225.128906 893.410156 1223.851562 895.429688 1223.519531 897.550781 C 1223.429688 898.171875 1224.078125 898.609375 1224.578125 898.160156 C 1226.261719 896.691406 1227.128906 894.308594 1227.96875 892.300781 C 1228.851562 890.210938 1229.628906 888.070312 1230.300781 885.898438 C 1231.648438 881.488281 1232.410156 876.898438 1232.660156 872.300781 C 1232.710938 871.53125 1231.410156 871.328125 1231.300781 872.109375 "/>
<path fill-rule="nonzero" fill="rgb(19.993591%, 19.993591%, 19.993591%)" fill-opacity="1" d="M 1245.28125 863.699219 C 1245.058594 865.621094 1244.691406 867.511719 1244.179688 869.371094 C 1243.679688 871.210938 1243.160156 873.050781 1242.480469 874.828125 C 1242.320312 875.261719 1243.019531 875.558594 1243.230469 875.148438 C 1244.121094 873.371094 1244.910156 871.53125 1245.429688 869.609375 C 1245.960938 867.671875 1246.320312 865.699219 1246.550781 863.699219 C 1246.648438 862.890625 1245.378906 862.898438 1245.28125 863.699219 "/>
<path fill-rule="nonzero" fill="rgb(19.993591%, 19.993591%, 19.993591%)" fill-opacity="1" d="M 1293.910156 832.738281 C 1291.609375 837.25 1289.691406 841.96875 1287.21875 846.410156 C 1284.738281 850.871094 1281.71875 854.960938 1279.121094 859.328125 C 1278.78125 859.898438 1279.570312 860.519531 1280.039062 860.039062 C 1283.601562 856.378906 1286.328125 851.769531 1288.769531 847.320312 C 1291.25 842.820312 1293.601562 838.121094 1294.808594 833.121094 C 1294.929688 832.601562 1294.171875 832.230469 1293.910156 832.738281 "/>
<path fill-rule="nonzero" fill="rgb(19.993591%, 19.993591%, 19.993591%)" fill-opacity="1" d="M 1305.648438 828.660156 C 1302.839844 832.46875 1300.078125 836.328125 1297.398438 840.230469 C 1294.738281 844.121094 1291.910156 847.949219 1289.78125 852.171875 C 1289.519531 852.699219 1290.210938 853.328125 1290.648438 852.839844 C 1293.808594 849.339844 1296.359375 845.320312 1299.011719 841.441406 C 1301.710938 837.46875 1304.351562 833.449219 1306.910156 829.390625 C 1307.429688 828.578125 1306.199219 827.921875 1305.648438 828.660156 "/>
<path fill-rule="nonzero" fill="rgb(19.993591%, 19.993591%, 19.993591%)" fill-opacity="1" d="M 1314.101562 823.488281 C 1312.601562 828.859375 1309.980469 833.808594 1306.578125 838.199219 C 1306.199219 838.691406 1306.78125 839.320312 1307.269531 838.898438 C 1309.480469 836.988281 1311.390625 834.609375 1312.691406 832 C 1313.328125 830.71875 1313.878906 829.378906 1314.339844 828.03125 C 1314.828125 826.589844 1315.101562 825.160156 1315.300781 823.648438 C 1315.390625 822.960938 1314.28125 822.851562 1314.101562 823.488281 "/>
<path fill-rule="nonzero" fill="rgb(19.993591%, 19.993591%, 19.993591%)" fill-opacity="1" d="M 1347.101562 801.410156 C 1347.640625 801.410156 1347.648438 800.578125 1347.101562 800.578125 C 1346.570312 800.578125 1346.558594 801.410156 1347.101562 801.410156 "/>
<path fill-rule="nonzero" fill="rgb(19.993591%, 19.993591%, 19.993591%)" fill-opacity="1" d="M 1346.859375 800.800781 C 1343.921875 806.449219 1341.308594 812.261719 1338.621094 818.03125 C 1336.011719 823.621094 1332.898438 829.210938 1331.078125 835.109375 C 1330.851562 835.871094 1331.929688 836.269531 1332.328125 835.628906 C 1335.71875 830.308594 1338.019531 824.171875 1340.640625 818.441406 C 1343.238281 812.78125 1345.910156 807.160156 1348.261719 801.390625 C 1348.589844 800.589844 1347.25 800.039062 1346.859375 800.800781 "/>
<path fill-rule="nonzero" fill="rgb(19.993591%, 19.993591%, 19.993591%)" fill-opacity="1" d="M 1365.449219 789.460938 C 1363.578125 794.449219 1361.410156 799.351562 1359.039062 804.121094 C 1356.699219 808.820312 1353.75 813.210938 1351.578125 817.980469 C 1351.289062 818.628906 1352.078125 819.410156 1352.628906 818.800781 C 1356.191406 814.78125 1358.640625 809.761719 1360.988281 804.960938 C 1363.378906 800.089844 1365.359375 795.050781 1367.070312 789.898438 C 1367.410156 788.859375 1365.820312 788.460938 1365.449219 789.460938 "/>
<path fill-rule="nonzero" fill="rgb(19.993591%, 19.993591%, 19.993591%)" fill-opacity="1" d="M 1383.53125 775.019531 C 1380.871094 779.550781 1378.359375 784.160156 1376.011719 788.859375 C 1373.761719 793.371094 1371.238281 798.191406 1370.210938 803.160156 C 1370.089844 803.71875 1370.828125 804.058594 1371.148438 803.550781 C 1373.828125 799.210938 1375.578125 794.179688 1377.691406 789.539062 C 1379.839844 784.828125 1382.148438 780.199219 1384.601562 775.640625 C 1384.980469 774.941406 1383.941406 774.320312 1383.53125 775.019531 "/>
<path fill-rule="nonzero" fill="rgb(19.993591%, 19.993591%, 19.993591%)" fill-opacity="1" d="M 1394.230469 766.398438 C 1392.449219 771.160156 1390.691406 775.929688 1388.980469 780.71875 C 1388.148438 783.03125 1387.328125 785.328125 1386.519531 787.640625 C 1385.710938 789.949219 1384.570312 792.398438 1384.550781 794.878906 C 1384.539062 795.421875 1385.339844 795.839844 1385.710938 795.359375 C 1387.171875 793.46875 1387.820312 791.019531 1388.601562 788.800781 C 1389.441406 786.398438 1390.261719 784 1391.078125 781.589844 C 1392.761719 776.699219 1394.390625 771.800781 1395.988281 766.878906 C 1396.359375 765.761719 1394.640625 765.320312 1394.230469 766.398438 "/>
<path fill-rule="nonzero" fill="rgb(19.993591%, 19.993591%, 19.993591%)" fill-opacity="1" d="M 1411.019531 756.761719 C 1406.859375 765.269531 1401.578125 773.238281 1395.960938 780.851562 C 1395.601562 781.328125 1396.390625 781.929688 1396.789062 781.488281 C 1399.980469 777.941406 1402.839844 774.25 1405.351562 770.179688 C 1407.878906 766.070312 1410.148438 761.808594 1412.160156 757.421875 C 1412.5 756.660156 1411.390625 755.988281 1411.019531 756.761719 "/>
<path fill-rule="nonzero" fill="rgb(19.993591%, 19.993591%, 19.993591%)" fill-opacity="1" d="M 1452.269531 727.109375 C 1454.5 729.820312 1450.730469 734.78125 1449.46875 737.210938 C 1447.859375 740.320312 1446.25 743.429688 1444.640625 746.539062 C 1441.429688 752.75 1437.660156 758.980469 1435.351562 765.589844 C 1435.121094 766.261719 1436.070312 766.550781 1436.429688 766.039062 C 1438.78125 762.679688 1440.570312 758.878906 1442.449219 755.238281 C 1444.410156 751.46875 1446.308594 747.660156 1448.238281 743.871094 C 1449.988281 740.421875 1451.980469 737.011719 1453.46875 733.441406 C 1454.449219 731.109375 1455.101562 728.261719 1453.089844 726.300781 C 1452.550781 725.769531 1451.808594 726.550781 1452.269531 727.109375 "/>
<path fill-rule="nonzero" fill="rgb(19.993591%, 19.993591%, 19.993591%)" fill-opacity="1" d="M 1473.109375 716.640625 C 1470.828125 723.019531 1468.070312 729.21875 1464.960938 735.230469 C 1461.898438 741.121094 1458.230469 746.648438 1455 752.429688 C 1454.761719 752.871094 1455.359375 753.378906 1455.71875 752.988281 C 1460.339844 747.988281 1463.789062 742.011719 1466.859375 735.96875 C 1469.949219 729.890625 1472.398438 723.519531 1474.378906 716.988281 C 1474.621094 716.171875 1473.390625 715.851562 1473.109375 716.640625 "/>
<path fill-rule="nonzero" fill="rgb(19.993591%, 19.993591%, 19.993591%)" fill-opacity="1" d="M 1492.371094 699.261719 C 1489.890625 706.929688 1486.660156 714.328125 1482.851562 721.429688 C 1479.121094 728.410156 1474.570312 734.839844 1470.378906 741.539062 C 1470.089844 742.011719 1470.761719 742.519531 1471.148438 742.128906 C 1476.851562 736.398438 1481.140625 729.339844 1484.828125 722.199219 C 1488.539062 714.988281 1491.410156 707.398438 1493.621094 699.601562 C 1493.851562 698.800781 1492.628906 698.46875 1492.371094 699.261719 "/>
<path fill-rule="nonzero" fill="rgb(19.993591%, 19.993591%, 19.993591%)" fill-opacity="1" d="M 1510.050781 690.96875 C 1507.558594 698.179688 1505.070312 705.390625 1502.398438 712.539062 C 1501.078125 716.050781 1499.691406 719.53125 1498.289062 723.011719 C 1496.851562 726.570312 1495.191406 730.089844 1494.128906 733.789062 C 1493.929688 734.480469 1494.898438 734.859375 1495.269531 734.269531 C 1497.339844 731.019531 1498.769531 727.390625 1500.269531 723.839844 C 1501.71875 720.421875 1503.050781 716.941406 1504.359375 713.449219 C 1507.070312 706.199219 1509.460938 698.839844 1511.390625 691.339844 C 1511.609375 690.46875 1510.339844 690.140625 1510.050781 690.96875 "/>
<path fill-rule="nonzero" fill="rgb(19.993591%, 19.993591%, 19.993591%)" fill-opacity="1" d="M 1527.871094 679.238281 C 1526.21875 684.878906 1524.140625 690.449219 1521.488281 695.699219 C 1518.871094 700.890625 1515.5 705.609375 1512.550781 710.589844 C 1512.191406 711.199219 1513 711.800781 1513.5 711.328125 C 1517.859375 707.28125 1520.988281 701.921875 1523.578125 696.621094 C 1526.230469 691.210938 1528.210938 685.570312 1529.390625 679.660156 C 1529.589844 678.671875 1528.160156 678.261719 1527.871094 679.238281 "/>
<path fill-rule="nonzero" fill="rgb(19.993591%, 19.993591%, 19.993591%)" fill-opacity="1" d="M 1549.941406 665.359375 C 1549.03125 667.941406 1548.050781 670.53125 1546.878906 673.011719 C 1545.710938 675.488281 1544.320312 677.859375 1543.128906 680.320312 C 1542.808594 680.980469 1543.648438 681.761719 1544.199219 681.148438 C 1546.140625 679.019531 1547.511719 676.539062 1548.699219 673.921875 C 1549.890625 671.28125 1550.828125 668.609375 1551.390625 665.761719 C 1551.578125 664.808594 1550.261719 664.441406 1549.941406 665.359375 "/>
<path fill-rule="nonzero" fill="rgb(19.993591%, 19.993591%, 19.993591%)" fill-opacity="1" d="M 1607.449219 635.410156 C 1601.710938 641.128906 1596.140625 647.011719 1590.800781 653.121094 C 1585.578125 659.089844 1580.339844 665.160156 1576.03125 671.839844 C 1575.648438 672.441406 1576.539062 673.140625 1577.03125 672.609375 C 1582.410156 666.710938 1587.261719 660.339844 1592.421875 654.25 C 1597.589844 648.148438 1602.878906 642.128906 1608.300781 636.25 C 1608.820312 635.691406 1608 634.859375 1607.449219 635.410156 "/>
<path fill-rule="nonzero" fill="rgb(19.993591%, 19.993591%, 19.993591%)" fill-opacity="1" d="M 1629.210938 626.269531 C 1623.851562 630.398438 1619.371094 635.988281 1615.359375 641.398438 C 1611.238281 646.949219 1607.269531 652.851562 1604.828125 659.339844 C 1604.5 660.199219 1605.78125 660.621094 1606.25 659.929688 C 1610 654.398438 1613.261719 648.550781 1617.210938 643.140625 C 1621.21875 637.640625 1625.910156 632.75 1630.101562 627.421875 C 1630.558594 626.839844 1629.929688 625.71875 1629.210938 626.269531 "/>
<path fill-rule="nonzero" fill="rgb(19.993591%, 19.993591%, 19.993591%)" fill-opacity="1" d="M 1647.128906 623.429688 C 1642.628906 629.160156 1638.121094 634.890625 1633.28125 640.351562 C 1630.890625 643.039062 1628.421875 645.660156 1625.921875 648.25 C 1623.351562 650.910156 1620.589844 653.441406 1618.238281 656.28125 C 1617.691406 656.941406 1618.421875 658.171875 1619.238281 657.578125 C 1622.128906 655.488281 1624.660156 652.878906 1627.148438 650.339844 C 1629.820312 647.628906 1632.359375 644.789062 1634.851562 641.921875 C 1639.691406 636.339844 1644.300781 630.539062 1648.339844 624.359375 C 1648.808594 623.640625 1647.679688 622.738281 1647.128906 623.429688 "/>
<path fill-rule="nonzero" fill="rgb(19.993591%, 19.993591%, 19.993591%)" fill-opacity="1" d="M 1665.320312 621.929688 C 1660.179688 625.140625 1655.851562 629.429688 1652.121094 634.179688 C 1650.300781 636.5 1648.648438 638.941406 1647.179688 641.480469 C 1645.640625 644.148438 1644.191406 646.898438 1643.621094 649.949219 C 1643.449219 650.828125 1644.550781 651.320312 1645.058594 650.558594 C 1646.691406 648.148438 1647.878906 645.511719 1649.320312 643 C 1650.769531 640.480469 1652.390625 638.070312 1654.140625 635.75 C 1657.648438 631.078125 1661.890625 626.988281 1666.238281 623.121094 C 1666.878906 622.550781 1666.050781 621.480469 1665.320312 621.929688 "/>
<path fill-rule="nonzero" fill="rgb(19.993591%, 19.993591%, 19.993591%)" fill-opacity="1" d="M 1682.828125 620.230469 C 1678.550781 624.511719 1674.488281 628.960938 1670.621094 633.621094 C 1666.851562 638.179688 1662.839844 642.78125 1659.878906 647.921875 C 1659.421875 648.71875 1660.519531 649.621094 1661.171875 648.921875 C 1665.25 644.609375 1668.699219 639.679688 1672.460938 635.101562 C 1676.25 630.480469 1680.070312 625.890625 1683.898438 621.300781 C 1684.511719 620.570312 1683.53125 619.53125 1682.828125 620.230469 "/>
<path fill-rule="nonzero" fill="rgb(19.993591%, 19.993591%, 19.993591%)" fill-opacity="1" d="M 1692.410156 621.308594 C 1688.140625 625.019531 1684.53125 629.570312 1680.929688 633.921875 C 1679.160156 636.039062 1677.421875 638.191406 1675.699219 640.359375 C 1674.828125 641.460938 1673.960938 642.570312 1673.128906 643.710938 C 1672.328125 644.800781 1671.398438 645.878906 1671.128906 647.238281 C 1671 647.859375 1671.609375 648.339844 1672.179688 648.050781 C 1673.339844 647.449219 1674.089844 646.371094 1674.898438 645.378906 C 1675.820312 644.238281 1676.71875 643.089844 1677.621094 641.929688 C 1679.378906 639.691406 1681.148438 637.460938 1682.960938 635.261719 C 1686.488281 630.929688 1690.359375 626.78125 1693.550781 622.191406 C 1694.050781 621.46875 1693 620.789062 1692.410156 621.308594 "/>
<path fill-rule="nonzero" fill="rgb(19.993591%, 19.993591%, 19.993591%)" fill-opacity="1" d="M 1701.121094 625.140625 C 1699.140625 627.210938 1697.46875 629.570312 1695.71875 631.828125 C 1693.898438 634.199219 1692.070312 636.550781 1690.269531 638.921875 C 1688.46875 641.300781 1686.691406 643.679688 1684.890625 646.058594 C 1683.140625 648.390625 1681.101562 650.738281 1679.859375 653.398438 C 1679.5 654.171875 1680.378906 654.898438 1681.039062 654.308594 C 1683.171875 652.441406 1684.820312 649.921875 1686.511719 647.648438 C 1688.300781 645.269531 1690.078125 642.878906 1691.859375 640.5 C 1693.640625 638.109375 1695.378906 635.699219 1697.128906 633.300781 C 1698.871094 630.910156 1700.75 628.558594 1702.230469 626 C 1702.621094 625.308594 1701.679688 624.550781 1701.121094 625.140625 "/>
<path fill-rule="nonzero" fill="rgb(19.993591%, 19.993591%, 19.993591%)" fill-opacity="1" d="M 1710.171875 627.191406 C 1707.820312 630.070312 1705.460938 632.960938 1703.101562 635.851562 C 1700.769531 638.699219 1698.390625 641.539062 1696.5 644.699219 C 1696.179688 645.25 1696.921875 645.800781 1697.371094 645.371094 C 1700.03125 642.839844 1702.261719 639.910156 1704.519531 637.03125 C 1706.789062 634.128906 1709.058594 631.230469 1711.328125 628.339844 C 1711.960938 627.53125 1710.839844 626.371094 1710.171875 627.191406 "/>
<path fill-rule="nonzero" fill="rgb(19.993591%, 19.993591%, 19.993591%)" fill-opacity="1" d="M 1718.699219 630.519531 C 1717.019531 631.601562 1715.519531 632.96875 1714.011719 634.261719 C 1712.449219 635.601562 1710.910156 636.941406 1709.390625 638.308594 C 1706.351562 641.03125 1703.421875 643.890625 1700.5 646.738281 C 1700.03125 647.199219 1700.710938 647.808594 1701.191406 647.441406 C 1704.378906 644.949219 1707.589844 642.46875 1710.679688 639.859375 C 1712.199219 638.570312 1713.699219 637.269531 1715.191406 635.960938 C 1716.71875 634.621094 1718.320312 633.289062 1719.640625 631.75 C 1720.179688 631.109375 1719.488281 630.019531 1718.699219 630.519531 "/>
<path fill-rule="nonzero" fill="rgb(19.993591%, 19.993591%, 19.993591%)" fill-opacity="1" d="M 1588.351562 647.011719 C 1581.820312 655.890625 1574.460938 664.078125 1567.171875 672.328125 C 1566.769531 672.78125 1567.378906 673.390625 1567.828125 672.988281 C 1576.101562 665.558594 1583.019531 656.710938 1589.21875 647.511719 C 1589.578125 646.96875 1588.71875 646.488281 1588.351562 647.011719 "/>
<path fill-rule="nonzero" fill="rgb(19.993591%, 19.993591%, 19.993591%)" fill-opacity="1" d="M 1152.199219 925 C 1148 929.660156 1144.949219 935.519531 1142.171875 941.101562 C 1140.820312 943.820312 1139.550781 946.589844 1138.429688 949.410156 C 1137.808594 950.941406 1137.21875 952.5 1136.710938 954.078125 C 1136.25 955.488281 1135.621094 957.058594 1135.578125 958.550781 C 1135.550781 959.441406 1136.71875 959.640625 1137.160156 958.980469 C 1137.949219 957.808594 1138.351562 956.28125 1138.878906 954.980469 C 1139.46875 953.53125 1140.011719 952.058594 1140.609375 950.609375 C 1141.808594 947.730469 1143.050781 944.878906 1144.429688 942.078125 C 1147.171875 936.550781 1150.648438 931.480469 1153.53125 926.03125 C 1153.960938 925.210938 1152.871094 924.261719 1152.199219 925 "/>
<path fill-rule="nonzero" fill="rgb(19.993591%, 19.993591%, 19.993591%)" fill-opacity="1" d="M 1137.449219 937.859375 C 1134.738281 942.730469 1132 947.589844 1129.308594 952.46875 C 1126.710938 957.210938 1123.808594 961.910156 1121.828125 966.949219 C 1121.609375 967.519531 1122.449219 967.769531 1122.75 967.339844 C 1125.921875 962.898438 1128.28125 957.839844 1130.839844 953.03125 C 1133.429688 948.199219 1135.949219 943.328125 1138.5 938.480469 C 1138.871094 937.78125 1137.828125 937.171875 1137.449219 937.859375 "/>
<path fill-rule="nonzero" fill="rgb(19.993591%, 19.993591%, 19.993591%)" fill-opacity="1" d="M 1124.878906 945.011719 C 1121.289062 950.148438 1118.359375 955.648438 1116.019531 961.46875 C 1114.851562 964.359375 1113.789062 967.320312 1112.910156 970.320312 C 1112.039062 973.28125 1111.171875 976.308594 1111.089844 979.410156 C 1111.070312 980.210938 1112.128906 980.230469 1112.390625 979.578125 C 1113.519531 976.78125 1114.140625 973.789062 1115.019531 970.898438 C 1115.910156 968 1116.878906 965.140625 1118 962.320312 C 1120.269531 956.601562 1123 951.039062 1126 945.660156 C 1126.410156 944.921875 1125.351562 944.328125 1124.878906 945.011719 "/>
<path fill-rule="nonzero" fill="rgb(19.993591%, 19.993591%, 19.993591%)" fill-opacity="1" d="M 1112.339844 954.058594 C 1109.351562 958.039062 1107.03125 962.648438 1105.089844 967.230469 C 1103.199219 971.710938 1101.28125 976.449219 1100.761719 981.308594 C 1100.691406 981.96875 1101.769531 982.269531 1102.03125 981.660156 C 1103.929688 977.21875 1105.179688 972.519531 1107.058594 968.058594 C 1108.988281 963.5 1111.308594 959.171875 1113.480469 954.730469 C 1113.859375 953.949219 1112.839844 953.390625 1112.339844 954.058594 "/>
<path fill-rule="nonzero" fill="rgb(19.993591%, 19.993591%, 19.993591%)" fill-opacity="1" d="M 1072.960938 977.070312 C 1069.140625 981.941406 1065.859375 987.171875 1062.5 992.359375 C 1060.808594 994.960938 1059.101562 997.558594 1057.460938 1000.191406 C 1055.78125 1002.890625 1053.929688 1005.601562 1052.601562 1008.488281 C 1052.339844 1009.078125 1053.070312 1009.800781 1053.558594 1009.230469 C 1055.5 1007.019531 1057.109375 1004.460938 1058.761719 1002.03125 C 1060.558594 999.371094 1062.300781 996.671875 1064.039062 993.980469 C 1067.480469 988.679688 1071.019531 983.441406 1073.96875 977.859375 C 1074.289062 977.238281 1073.429688 976.46875 1072.960938 977.070312 "/>
<path fill-rule="nonzero" fill="rgb(19.993591%, 19.993591%, 19.993591%)" fill-opacity="1" d="M 1049.410156 991.53125 C 1046.378906 997.929688 1043.039062 1004.230469 1039.101562 1010.121094 C 1037.101562 1013.121094 1034.949219 1016.03125 1032.671875 1018.828125 C 1030.5 1021.511719 1027.921875 1023.949219 1025.949219 1026.769531 C 1025.539062 1027.359375 1026.359375 1028.191406 1026.949219 1027.769531 C 1029.789062 1025.730469 1032.140625 1022.769531 1034.359375 1020.101562 C 1036.660156 1017.328125 1038.800781 1014.449219 1040.789062 1011.449219 C 1044.839844 1005.371094 1048.238281 998.960938 1050.710938 992.078125 C 1050.96875 991.328125 1049.761719 990.808594 1049.410156 991.53125 "/>
<path fill-rule="nonzero" fill="rgb(19.993591%, 19.993591%, 19.993591%)" fill-opacity="1" d="M 1028.28125 1006.46875 C 1024.828125 1012 1021.441406 1017.558594 1018.199219 1023.21875 C 1015.050781 1028.691406 1011.578125 1034.179688 1009.210938 1040.050781 C 1008.910156 1040.789062 1010.03125 1041.140625 1010.441406 1040.558594 C 1014.101562 1035.339844 1016.929688 1029.46875 1020.078125 1023.941406 C 1023.25 1018.371094 1026.398438 1012.789062 1029.601562 1007.238281 C 1030.101562 1006.390625 1028.800781 1005.640625 1028.28125 1006.46875 "/>
<path fill-rule="nonzero" fill="rgb(19.993591%, 19.993591%, 19.993591%)" fill-opacity="1" d="M 1006.558594 1017.328125 C 1004.828125 1022.601562 1002.640625 1027.699219 999.976562 1032.570312 C 997.378906 1037.328125 994.296875 1041.769531 991.257812 1046.261719 C 990.992188 1046.648438 991.597656 1047.121094 991.914062 1046.769531 C 999.339844 1038.648438 1004.308594 1028.019531 1007.558594 1017.601562 C 1007.761719 1016.96875 1006.769531 1016.699219 1006.558594 1017.328125 "/>
<path fill-rule="nonzero" fill="rgb(19.993591%, 19.993591%, 19.993591%)" fill-opacity="1" d="M 989.007812 1035.011719 C 987.183594 1038.898438 985.40625 1042.828125 983.835938 1046.828125 C 982.242188 1050.878906 980.550781 1055.011719 979.664062 1059.289062 C 979.535156 1059.921875 980.472656 1060.421875 980.78125 1059.761719 C 982.558594 1055.941406 983.828125 1051.890625 985.34375 1047.960938 C 986.921875 1043.871094 988.523438 1039.78125 990.265625 1035.75 C 990.632812 1034.898438 989.410156 1034.148438 989.007812 1035.011719 "/>
<path fill-rule="nonzero" fill="rgb(19.993591%, 19.993591%, 19.993591%)" fill-opacity="1" d="M 953.792969 1060.5 C 953.765625 1060.53125 953.734375 1060.558594 953.707031 1060.589844 C 953.347656 1060.570312 952.886719 1060.820312 952.734375 1061.148438 C 950.9375 1065.03125 949.015625 1068.789062 946.617188 1072.328125 C 944.203125 1075.898438 941.238281 1078.96875 938.519531 1082.28125 C 937.964844 1082.960938 938.6875 1084.171875 939.535156 1083.601562 C 943.199219 1081.121094 946.113281 1077.53125 948.636719 1073.941406 C 951.199219 1070.289062 953.386719 1066.261719 954.792969 1062.019531 C 954.90625 1061.679688 954.796875 1061.160156 954.503906 1060.921875 C 954.484375 1060.871094 954.46875 1060.828125 954.449219 1060.78125 C 954.527344 1060.390625 954.003906 1060.128906 953.792969 1060.5 "/>
<path fill-rule="nonzero" fill="rgb(19.993591%, 19.993591%, 19.993591%)" fill-opacity="1" d="M 934.472656 1077.378906 C 931.613281 1080.601562 929.039062 1084.058594 926.414062 1087.46875 C 923.769531 1090.910156 921.15625 1094.398438 918.867188 1098.089844 C 918.488281 1098.691406 919.367188 1099.390625 919.863281 1098.859375 C 922.796875 1095.710938 925.453125 1092.320312 928.058594 1088.898438 C 930.691406 1085.441406 933.386719 1082.019531 935.769531 1078.378906 C 936.277344 1077.601562 935.097656 1076.679688 934.472656 1077.378906 "/>
<path fill-rule="nonzero" fill="rgb(19.993591%, 19.993591%, 19.993591%)" fill-opacity="1" d="M 937.609375 1068.039062 C 935.222656 1070.828125 933.140625 1073.878906 931.015625 1076.871094 C 929.949219 1078.371094 928.886719 1079.871094 927.820312 1081.359375 C 926.734375 1082.890625 925.523438 1084.410156 924.703125 1086.101562 C 924.351562 1086.828125 925.25 1087.640625 925.871094 1087 C 927.160156 1085.699219 928.171875 1084.089844 929.21875 1082.589844 C 930.269531 1081.089844 931.324219 1079.578125 932.375 1078.078125 C 934.507812 1075.03125 936.714844 1072.011719 938.570312 1068.78125 C 938.902344 1068.191406 938.074219 1067.488281 937.609375 1068.039062 "/>
<path fill-rule="nonzero" fill="rgb(19.993591%, 19.993591%, 19.993591%)" fill-opacity="1" d="M 918.734375 1080.761719 C 916.683594 1085.738281 914.285156 1090.601562 911.582031 1095.261719 C 908.933594 1099.839844 905.796875 1104.089844 903.078125 1108.621094 C 902.8125 1109.058594 903.429688 1109.539062 903.792969 1109.171875 C 907.597656 1105.320312 910.5 1100.578125 913.125 1095.878906 C 915.777344 1091.128906 918.019531 1086.179688 919.910156 1081.078125 C 920.1875 1080.339844 919.023438 1080.050781 918.734375 1080.761719 "/>
<path fill-rule="nonzero" fill="rgb(19.993591%, 19.993591%, 19.993591%)" fill-opacity="1" d="M 904.078125 1095.101562 C 901.839844 1099.078125 899.347656 1102.910156 896.597656 1106.558594 C 893.863281 1110.199219 890.683594 1113.488281 887.96875 1117.121094 C 887.703125 1117.480469 888.242188 1117.789062 888.535156 1117.558594 C 892.070312 1114.769531 894.964844 1110.988281 897.625 1107.390625 C 900.378906 1103.660156 902.863281 1099.75 905.09375 1095.691406 C 905.453125 1095.03125 904.449219 1094.441406 904.078125 1095.101562 "/>
<path fill-rule="nonzero" fill="rgb(19.993591%, 19.993591%, 19.993591%)" fill-opacity="1" d="M 840.0625 1126.980469 C 837.117188 1131.679688 834.179688 1136.371094 831.316406 1141.109375 C 828.46875 1145.828125 825.378906 1150.519531 823.089844 1155.539062 C 822.796875 1156.179688 823.597656 1156.628906 824.019531 1156.078125 C 827.386719 1151.699219 830.078125 1146.78125 832.917969 1142.050781 C 835.769531 1137.300781 838.535156 1132.511719 841.300781 1127.710938 C 841.765625 1126.898438 840.550781 1126.199219 840.0625 1126.980469 "/>
<path fill-rule="nonzero" fill="rgb(19.993591%, 19.993591%, 19.993591%)" fill-opacity="1" d="M 824.828125 1140.988281 C 820.800781 1145.628906 816.894531 1150.808594 814.523438 1156.511719 C 814.285156 1157.078125 815.183594 1157.398438 815.484375 1156.921875 C 817.09375 1154.359375 818.570312 1151.730469 820.246094 1149.21875 C 821.945312 1146.691406 823.792969 1144.261719 825.777344 1141.941406 C 826.335938 1141.289062 825.398438 1140.339844 824.828125 1140.988281 "/>
<path fill-rule="nonzero" fill="rgb(19.993591%, 19.993591%, 19.993591%)" fill-opacity="1" d="M 806.53125 1154.53125 C 799.84375 1163.890625 792.800781 1173.210938 787.214844 1183.289062 C 786.964844 1183.730469 787.597656 1184.28125 787.945312 1183.851562 C 795.316406 1174.929688 801.449219 1164.929688 807.75 1155.238281 C 808.253906 1154.46875 807.050781 1153.800781 806.53125 1154.53125 "/>
<path fill-rule="nonzero" fill="rgb(19.993591%, 19.993591%, 19.993591%)" fill-opacity="1" d="M 788.929688 1167.109375 C 786.105469 1171.21875 783.738281 1175.660156 781.257812 1179.980469 C 778.777344 1184.308594 776.253906 1188.648438 774.109375 1193.160156 C 773.777344 1193.851562 774.710938 1194.410156 775.140625 1193.761719 C 777.90625 1189.609375 780.332031 1185.21875 782.769531 1180.871094 C 785.207031 1176.519531 787.800781 1172.199219 789.878906 1167.671875 C 790.171875 1167.03125 789.335938 1166.519531 788.929688 1167.109375 "/>
<path fill-rule="nonzero" fill="rgb(19.993591%, 19.993591%, 19.993591%)" fill-opacity="1" d="M 778.410156 1174.289062 C 775.589844 1178.320312 772.957031 1182.46875 770.464844 1186.71875 C 768.050781 1190.828125 765.523438 1195.03125 763.796875 1199.488281 C 763.597656 1200 764.371094 1200.261719 764.652344 1199.851562 C 767.328125 1195.839844 769.492188 1191.460938 771.882812 1187.269531 C 774.285156 1183.078125 776.761719 1178.929688 779.238281 1174.769531 C 779.558594 1174.230469 778.757812 1173.789062 778.410156 1174.289062 "/>
<path fill-rule="nonzero" fill="rgb(19.993591%, 19.993591%, 19.993591%)" fill-opacity="1" d="M 748.855469 1194.699219 C 747.078125 1199.238281 745.175781 1203.761719 743.097656 1208.171875 C 741.117188 1212.359375 738.722656 1216.410156 736.984375 1220.699219 C 736.875 1220.980469 737.300781 1221.21875 737.488281 1221 C 740.492188 1217.308594 742.601562 1212.789062 744.550781 1208.46875 C 746.542969 1204.058594 748.222656 1199.558594 749.570312 1194.898438 C 749.707031 1194.429688 749.027344 1194.269531 748.855469 1194.699219 "/>
<path fill-rule="nonzero" fill="rgb(19.993591%, 19.993591%, 19.993591%)" fill-opacity="1" d="M 739.90625 1202.109375 C 737.667969 1205.359375 735.941406 1209.070312 734.261719 1212.628906 C 732.609375 1216.140625 730.828125 1219.738281 729.921875 1223.53125 C 729.796875 1224.050781 730.519531 1224.378906 730.796875 1223.898438 C 732.75 1220.519531 734.128906 1216.808594 735.785156 1213.289062 C 737.449219 1209.75 739.378906 1206.289062 740.898438 1202.691406 C 741.183594 1202.019531 740.335938 1201.480469 739.90625 1202.109375 "/>
<path fill-rule="nonzero" fill="rgb(19.993591%, 19.993591%, 19.993591%)" fill-opacity="1" d="M 715.78125 1217.050781 C 713.972656 1220.140625 712.332031 1223.328125 710.742188 1226.539062 C 709.964844 1228.121094 709.148438 1229.679688 708.417969 1231.28125 C 707.699219 1232.859375 706.863281 1234.449219 706.441406 1236.140625 C 706.347656 1236.519531 706.863281 1236.898438 707.140625 1236.550781 C 708.253906 1235.148438 709.042969 1233.5 709.878906 1231.921875 C 710.699219 1230.359375 711.453125 1228.769531 712.234375 1227.191406 C 713.820312 1223.980469 715.34375 1220.75 716.703125 1217.441406 C 716.921875 1216.898438 716.0625 1216.570312 715.78125 1217.050781 "/>
<path fill-rule="nonzero" fill="rgb(19.993591%, 19.993591%, 19.993591%)" fill-opacity="1" d="M 706.644531 1224.800781 C 705.929688 1226.640625 705.035156 1228.421875 703.976562 1230.089844 C 702.914062 1231.78125 701.695312 1233.308594 700.472656 1234.878906 C 700.191406 1235.238281 700.628906 1235.710938 700.980469 1235.390625 C 702.480469 1234.03125 703.753906 1232.308594 704.796875 1230.570312 C 705.855469 1228.808594 706.730469 1226.949219 707.429688 1225.011719 C 707.605469 1224.519531 706.828125 1224.308594 706.644531 1224.800781 "/>
<path fill-rule="nonzero" fill="rgb(19.993591%, 19.993591%, 19.993591%)" fill-opacity="1" d="M 659.402344 1237.601562 C 659.101562 1238.488281 658.546875 1239.179688 658.265625 1240.070312 C 657.949219 1241.070312 657.730469 1242.089844 657.488281 1243.109375 C 657.039062 1244.988281 656.609375 1246.890625 656.1875 1248.78125 C 655.335938 1252.578125 654.230469 1256.519531 654.1875 1260.429688 C 654.183594 1260.890625 654.894531 1261.140625 655.101562 1260.679688 C 656.738281 1257.050781 657.410156 1252.980469 658.257812 1249.121094 C 658.6875 1247.148438 659.105469 1245.179688 659.511719 1243.199219 C 659.722656 1242.191406 660.011719 1241.140625 660.074219 1240.109375 C 660.128906 1239.28125 659.949219 1238.53125 660.039062 1237.691406 C 660.082031 1237.308594 659.515625 1237.269531 659.402344 1237.601562 "/>
<path fill-rule="nonzero" fill="rgb(19.993591%, 19.993591%, 19.993591%)" fill-opacity="1" d="M 654.980469 1236.050781 C 653.453125 1239.449219 652.089844 1242.921875 650.71875 1246.398438 C 649.3125 1249.941406 647.984375 1253.46875 647.097656 1257.179688 C 647.007812 1257.570312 647.554688 1257.828125 647.753906 1257.460938 C 649.558594 1254.179688 650.917969 1250.738281 652.246094 1247.25 C 653.597656 1243.691406 654.941406 1240.140625 656.117188 1236.53125 C 656.332031 1235.871094 655.273438 1235.398438 654.980469 1236.050781 "/>
<path fill-rule="nonzero" fill="rgb(19.993591%, 19.993591%, 19.993591%)" fill-opacity="1" d="M 647.675781 1240.828125 C 646.976562 1243.671875 646.144531 1246.460938 645.164062 1249.210938 C 644.683594 1250.558594 644.15625 1251.890625 643.636719 1253.230469 C 643.101562 1254.589844 642.421875 1255.941406 642.136719 1257.378906 C 642.070312 1257.71875 642.515625 1258.078125 642.777344 1257.761719 C 643.695312 1256.609375 644.238281 1255.230469 644.808594 1253.890625 C 645.371094 1252.558594 645.867188 1251.210938 646.339844 1249.851562 C 647.328125 1247 648.164062 1244.101562 648.855469 1241.160156 C 649.03125 1240.390625 647.863281 1240.070312 647.675781 1240.828125 "/>
<path fill-rule="nonzero" fill="rgb(19.993591%, 19.993591%, 19.993591%)" fill-opacity="1" d="M 641.480469 1244.078125 C 640.828125 1246.078125 639.96875 1248.011719 638.910156 1249.828125 C 637.847656 1251.648438 636.609375 1253.308594 635.425781 1255.050781 C 635.046875 1255.601562 635.851562 1256.140625 636.308594 1255.730469 C 637.902344 1254.300781 639.222656 1252.378906 640.242188 1250.5 C 641.289062 1248.570312 642.125 1246.53125 642.75 1244.429688 C 642.992188 1243.609375 641.742188 1243.28125 641.480469 1244.078125 "/>
<path fill-rule="nonzero" fill="rgb(19.993591%, 19.993591%, 19.993591%)" fill-opacity="1" d="M 623.78125 1248.011719 C 622.742188 1251.898438 621.5 1255.710938 620.128906 1259.5 C 618.761719 1263.269531 617.035156 1266.898438 615.722656 1270.679688 C 615.582031 1271.089844 616.1875 1271.320312 616.402344 1270.96875 C 618.46875 1267.589844 619.875 1263.730469 621.210938 1260.011719 C 622.589844 1256.171875 623.699219 1252.21875 624.65625 1248.25 C 624.796875 1247.679688 623.933594 1247.441406 623.78125 1248.011719 "/>
<path fill-rule="nonzero" fill="rgb(19.993591%, 19.993591%, 19.993591%)" fill-opacity="1" d="M 616.410156 1254.179688 C 613.964844 1257.371094 611.835938 1260.828125 609.902344 1264.359375 C 608.949219 1266.101562 608.042969 1267.859375 607.179688 1269.648438 C 606.320312 1271.410156 605.433594 1273.230469 605.109375 1275.179688 C 605.035156 1275.628906 605.5625 1275.859375 605.832031 1275.488281 C 607.042969 1273.851562 607.820312 1271.921875 608.695312 1270.089844 C 609.523438 1268.359375 610.394531 1266.648438 611.308594 1264.960938 C 613.195312 1261.46875 615.257812 1258.089844 617.300781 1254.691406 C 617.652344 1254.109375 616.800781 1253.671875 616.410156 1254.179688 "/>
<path fill-rule="nonzero" fill="rgb(19.993591%, 19.993591%, 19.993591%)" fill-opacity="1" d="M 609.703125 1259.039062 C 607.8125 1262.289062 606.023438 1265.601562 604.351562 1268.96875 C 603.527344 1270.628906 602.753906 1272.300781 602.011719 1274 C 601.664062 1274.789062 601.320312 1275.589844 600.988281 1276.378906 C 600.652344 1277.191406 600.179688 1278.089844 600.238281 1278.96875 C 600.269531 1279.378906 600.726562 1279.578125 601.035156 1279.300781 C 601.65625 1278.75 601.933594 1277.871094 602.253906 1277.109375 C 602.617188 1276.261719 602.972656 1275.410156 603.347656 1274.570312 C 604.089844 1272.871094 604.851562 1271.179688 605.628906 1269.5 C 607.179688 1266.128906 608.847656 1262.820312 610.613281 1259.570312 C 610.9375 1258.96875 610.046875 1258.449219 609.703125 1259.039062 "/>
<path fill-rule="nonzero" fill="rgb(19.993591%, 19.993591%, 19.993591%)" fill-opacity="1" d="M 602.800781 1261.359375 C 601.488281 1265.441406 599.925781 1269.429688 598.082031 1273.300781 C 597.195312 1275.171875 596.277344 1277.011719 595.289062 1278.828125 C 594.328125 1280.601562 593.210938 1282.351562 592.519531 1284.25 C 592.394531 1284.589844 592.882812 1284.851562 593.117188 1284.601562 C 594.5625 1283.089844 595.582031 1281.160156 596.5625 1279.328125 C 597.570312 1277.449219 598.519531 1275.539062 599.378906 1273.578125 C 601.09375 1269.691406 602.550781 1265.699219 603.746094 1261.621094 C 603.925781 1261.011719 602.992188 1260.761719 602.800781 1261.359375 "/>
<path fill-rule="nonzero" fill="rgb(19.993591%, 19.993591%, 19.993591%)" fill-opacity="1" d="M 594.257812 1269.671875 C 592.445312 1271.558594 590.777344 1273.640625 589.4375 1275.878906 C 588.769531 1277 588.191406 1278.191406 587.671875 1279.378906 C 587.152344 1280.558594 586.59375 1281.851562 586.414062 1283.128906 C 586.351562 1283.589844 586.960938 1283.949219 587.222656 1283.46875 C 587.824219 1282.371094 588.234375 1281.160156 588.761719 1280.019531 C 589.292969 1278.871094 589.894531 1277.75 590.535156 1276.660156 C 591.839844 1274.429688 593.273438 1272.328125 594.984375 1270.398438 C 595.421875 1269.910156 594.71875 1269.191406 594.257812 1269.671875 "/>
<path fill-rule="nonzero" fill="rgb(19.993591%, 19.993591%, 19.993591%)" fill-opacity="1" d="M 581.679688 1274.441406 C 579.75 1278.78125 577.675781 1283.039062 575.445312 1287.230469 C 574.347656 1289.289062 573.226562 1291.339844 572.085938 1293.378906 C 570.972656 1295.359375 569.710938 1297.328125 568.9375 1299.480469 C 568.820312 1299.808594 569.289062 1300.058594 569.519531 1299.820312 C 571.035156 1298.210938 572.132812 1296.21875 573.234375 1294.320312 C 574.445312 1292.230469 575.597656 1290.109375 576.703125 1287.96875 C 578.871094 1283.738281 580.886719 1279.441406 582.757812 1275.070312 C 583.066406 1274.351562 582.007812 1273.710938 581.679688 1274.441406 "/>
<path fill-rule="nonzero" fill="rgb(19.993591%, 19.993591%, 19.993591%)" fill-opacity="1" d="M 573.242188 1283.128906 C 571.011719 1287.191406 568.730469 1291.230469 566.386719 1295.238281 C 565.214844 1297.238281 564.058594 1299.25 562.882812 1301.25 C 561.785156 1303.128906 560.585938 1305.011719 559.757812 1307.03125 C 559.65625 1307.269531 560.035156 1307.480469 560.199219 1307.28125 C 561.605469 1305.621094 562.707031 1303.671875 563.816406 1301.800781 C 565.003906 1299.800781 566.175781 1297.800781 567.304688 1295.769531 C 569.5625 1291.71875 571.761719 1287.628906 573.902344 1283.511719 C 574.128906 1283.078125 573.480469 1282.691406 573.242188 1283.128906 "/>
<path fill-rule="nonzero" fill="rgb(19.993591%, 19.993591%, 19.993591%)" fill-opacity="1" d="M 564.824219 1285.121094 C 563.941406 1293.570312 560.597656 1301.121094 556.054688 1308.21875 C 555.859375 1308.519531 556.320312 1308.898438 556.5625 1308.609375 C 562.035156 1302.109375 564.945312 1293.511719 565.757812 1285.121094 C 565.816406 1284.519531 564.886719 1284.53125 564.824219 1285.121094 "/>
<path fill-rule="nonzero" fill="rgb(19.993591%, 19.993591%, 19.993591%)" fill-opacity="1" d="M 553.421875 1293.539062 C 552.496094 1297.871094 551.058594 1302.070312 549.097656 1306.039062 C 547.171875 1309.941406 544.660156 1313.421875 542.253906 1317.019531 C 542.054688 1317.320312 542.496094 1317.640625 542.742188 1317.398438 C 545.859375 1314.300781 548.152344 1310.289062 549.988281 1306.328125 C 551.851562 1302.300781 553.210938 1298.070312 554.046875 1293.710938 C 554.125 1293.308594 553.511719 1293.128906 553.421875 1293.539062 "/>
<path fill-rule="nonzero" fill="rgb(19.993591%, 19.993591%, 19.993591%)" fill-opacity="1" d="M 547.445312 1297.53125 C 545.402344 1301.898438 543.195312 1306.199219 540.824219 1310.410156 C 539.65625 1312.488281 538.488281 1314.558594 537.273438 1316.601562 C 536.019531 1318.710938 534.691406 1320.800781 533.726562 1323.058594 C 533.601562 1323.351562 533.941406 1323.699219 534.195312 1323.429688 C 537.382812 1319.96875 539.6875 1315.441406 541.867188 1311.300781 C 544.164062 1306.949219 546.28125 1302.5 548.234375 1297.988281 C 548.460938 1297.460938 547.699219 1296.988281 547.445312 1297.53125 "/>
<path fill-rule="nonzero" fill="rgb(19.993591%, 19.993591%, 19.993591%)" fill-opacity="1" d="M 534.421875 1302.941406 C 532.503906 1306.609375 530.578125 1310.269531 528.710938 1313.960938 C 526.914062 1317.511719 524.730469 1321.128906 523.617188 1324.96875 C 523.464844 1325.488281 524.160156 1325.71875 524.449219 1325.320312 C 526.804688 1322.070312 528.332031 1318.101562 530.042969 1314.488281 C 531.789062 1310.800781 533.472656 1307.089844 535.167969 1303.378906 C 535.394531 1302.878906 534.683594 1302.441406 534.421875 1302.941406 "/>
<path fill-rule="nonzero" fill="rgb(19.993591%, 19.993591%, 19.993591%)" fill-opacity="1" d="M 523.710938 1310.179688 C 522.59375 1314.230469 520.9375 1318.109375 518.765625 1321.71875 C 517.691406 1323.488281 516.492188 1325.179688 515.210938 1326.808594 C 513.960938 1328.410156 512.515625 1329.851562 511.304688 1331.480469 C 511.125 1331.71875 511.472656 1332.058594 511.714844 1331.890625 C 515.046875 1329.550781 517.59375 1325.679688 519.605469 1322.210938 C 521.746094 1318.511719 523.363281 1314.519531 524.429688 1310.378906 C 524.546875 1309.910156 523.839844 1309.71875 523.710938 1310.179688 "/>
<path fill-rule="nonzero" fill="rgb(19.993591%, 19.993591%, 19.993591%)" fill-opacity="1" d="M 516.992188 1310.371094 C 514.546875 1314.628906 512.097656 1318.890625 509.652344 1323.148438 C 507.289062 1327.269531 504.667969 1331.390625 502.847656 1335.78125 C 502.660156 1336.238281 503.34375 1336.441406 503.59375 1336.101562 C 506.390625 1332.199219 508.519531 1327.75 510.796875 1323.53125 C 513.089844 1319.28125 515.382812 1315.019531 517.675781 1310.769531 C 517.914062 1310.328125 517.246094 1309.929688 516.992188 1310.371094 "/>
<path fill-rule="nonzero" fill="rgb(19.993591%, 19.993591%, 19.993591%)" fill-opacity="1" d="M 503.949219 1320.261719 C 501.429688 1324.039062 498.910156 1327.820312 496.394531 1331.601562 C 495.15625 1333.460938 493.917969 1335.320312 492.703125 1337.191406 C 491.527344 1339.019531 490.140625 1340.851562 489.460938 1342.929688 C 489.304688 1343.410156 489.929688 1343.699219 490.261719 1343.398438 C 491.820312 1341.960938 492.886719 1339.988281 494.019531 1338.21875 C 495.261719 1336.28125 496.476562 1334.320312 497.691406 1332.359375 C 500.078125 1328.5 502.46875 1324.648438 504.859375 1320.789062 C 505.21875 1320.210938 504.320312 1319.699219 503.949219 1320.261719 "/>
<path fill-rule="nonzero" fill="rgb(19.993591%, 19.993591%, 19.993591%)" fill-opacity="1" d="M 490.746094 1330.761719 C 487.4375 1335.28125 484.085938 1339.78125 480.804688 1344.320312 C 477.570312 1348.789062 473.921875 1353.269531 471.386719 1358.191406 C 471.21875 1358.511719 471.640625 1358.878906 471.914062 1358.589844 C 475.710938 1354.621094 478.71875 1349.738281 481.886719 1345.269531 C 485.167969 1340.628906 488.355469 1335.921875 491.59375 1331.261719 C 491.957031 1330.730469 491.113281 1330.261719 490.746094 1330.761719 "/>
<path fill-rule="nonzero" fill="rgb(19.993591%, 19.993591%, 19.993591%)" fill-opacity="1" d="M 481.035156 1334.730469 C 478.265625 1338.78125 475.496094 1342.828125 472.726562 1346.878906 C 469.988281 1350.890625 466.996094 1354.921875 464.902344 1359.308594 C 464.71875 1359.691406 465.203125 1360.148438 465.523438 1359.789062 C 468.75 1356.191406 471.304688 1351.910156 473.933594 1347.859375 C 476.644531 1343.691406 479.355469 1339.511719 482.066406 1335.328125 C 482.492188 1334.679688 481.464844 1334.101562 481.035156 1334.730469 "/>
<path fill-rule="nonzero" fill="rgb(19.993591%, 19.993591%, 19.993591%)" fill-opacity="1" d="M 465.515625 1341.03125 C 462.820312 1345.78125 460.136719 1350.53125 457.539062 1355.339844 C 456.285156 1357.660156 455.046875 1359.980469 453.828125 1362.328125 C 452.601562 1364.691406 451.257812 1367.101562 450.464844 1369.648438 C 450.34375 1370.039062 450.910156 1370.410156 451.1875 1370.070312 C 452.84375 1367.980469 454.085938 1365.550781 455.347656 1363.210938 C 456.601562 1360.890625 457.835938 1358.558594 459.050781 1356.21875 C 461.574219 1351.359375 464.003906 1346.46875 466.425781 1341.558594 C 466.722656 1340.960938 465.855469 1340.429688 465.515625 1341.03125 "/>
<path fill-rule="nonzero" fill="rgb(19.993591%, 19.993591%, 19.993591%)" fill-opacity="1" d="M 459.539062 1347.019531 C 457.132812 1351.421875 454.710938 1355.820312 452.316406 1360.230469 C 451.160156 1362.359375 450.03125 1364.511719 448.890625 1366.648438 C 447.777344 1368.738281 446.226562 1371.011719 445.75 1373.359375 C 445.671875 1373.75 446.144531 1374.078125 446.453125 1373.761719 C 448.121094 1372.050781 449.117188 1369.519531 450.21875 1367.421875 C 451.34375 1365.28125 452.480469 1363.128906 453.589844 1360.980469 C 455.894531 1356.511719 458.164062 1352.019531 460.449219 1347.550781 C 460.757812 1346.949219 459.867188 1346.421875 459.539062 1347.019531 "/>
<path fill-rule="nonzero" fill="rgb(19.993591%, 19.993591%, 19.993591%)" fill-opacity="1" d="M 447.460938 1356.328125 C 444.726562 1360.921875 441.757812 1365.371094 438.554688 1369.660156 C 436.921875 1371.839844 435.246094 1374.011719 433.519531 1376.121094 C 432.6875 1377.140625 431.84375 1378.148438 430.984375 1379.148438 C 430.246094 1380 429.207031 1380.839844 428.902344 1381.960938 C 428.824219 1382.25 429.117188 1382.609375 429.433594 1382.488281 C 430.515625 1382.058594 431.203125 1380.96875 431.945312 1380.109375 C 432.800781 1379.109375 433.644531 1378.101562 434.476562 1377.078125 C 436.171875 1374.988281 437.808594 1372.859375 439.367188 1370.671875 C 442.542969 1366.179688 445.46875 1361.519531 448.144531 1356.71875 C 448.394531 1356.28125 447.722656 1355.890625 447.460938 1356.328125 "/>
<path fill-rule="nonzero" fill="rgb(19.993591%, 19.993591%, 19.993591%)" fill-opacity="1" d="M 441.839844 1355.929688 C 438.511719 1359.351562 435.699219 1363.191406 433.535156 1367.449219 C 432.503906 1369.480469 431.597656 1371.589844 430.886719 1373.761719 C 430.210938 1375.820312 429.269531 1378.320312 429.578125 1380.511719 C 429.632812 1380.910156 430.210938 1380.921875 430.386719 1380.621094 C 431.417969 1378.851562 431.707031 1376.519531 432.363281 1374.578125 C 433.113281 1372.359375 433.984375 1370.179688 435.015625 1368.078125 C 437.023438 1363.96875 439.570312 1360.109375 442.582031 1356.679688 C 443.027344 1356.171875 442.316406 1355.441406 441.839844 1355.929688 "/>
<path fill-rule="nonzero" fill="rgb(19.993591%, 19.993591%, 19.993591%)" fill-opacity="1" d="M 428.566406 1363.339844 C 426.128906 1367.289062 423.691406 1371.238281 421.253906 1375.191406 C 420.035156 1377.171875 418.800781 1379.128906 417.601562 1381.121094 C 416.476562 1382.980469 415.160156 1384.839844 414.40625 1386.890625 C 414.273438 1387.25 414.800781 1387.539062 415.046875 1387.261719 C 416.511719 1385.640625 417.546875 1383.601562 418.671875 1381.738281 C 419.871094 1379.761719 421.039062 1377.75 422.21875 1375.761719 C 424.582031 1371.761719 426.945312 1367.769531 429.308594 1363.78125 C 429.59375 1363.300781 428.855469 1362.871094 428.566406 1363.339844 "/>
<path fill-rule="nonzero" fill="rgb(19.993591%, 19.993591%, 19.993591%)" fill-opacity="1" d="M 419.796875 1370.011719 C 417.046875 1374.589844 414.164062 1379.078125 411.285156 1383.589844 C 408.441406 1388.050781 405.128906 1392.390625 402.796875 1397.148438 C 402.632812 1397.488281 403.058594 1397.871094 403.34375 1397.570312 C 406.941406 1393.75 409.660156 1388.988281 412.453125 1384.570312 C 415.347656 1379.988281 418.015625 1375.238281 420.644531 1370.5 C 420.949219 1369.949219 420.121094 1369.46875 419.796875 1370.011719 "/>
<path fill-rule="nonzero" fill="rgb(19.993591%, 19.993591%, 19.993591%)" fill-opacity="1" d="M 407.308594 1377.28125 C 405 1381.691406 402.511719 1385.988281 399.972656 1390.269531 C 398.722656 1392.378906 397.441406 1394.460938 396.125 1396.53125 C 394.863281 1398.5 393.273438 1400.539062 392.566406 1402.789062 C 392.433594 1403.210938 392.953125 1403.421875 393.246094 1403.191406 C 395.070312 1401.679688 396.332031 1399.351562 397.566406 1397.371094 C 398.863281 1395.289062 400.121094 1393.191406 401.347656 1391.078125 C 403.839844 1386.769531 406.078125 1382.308594 408.21875 1377.820312 C 408.507812 1377.210938 407.625 1376.679688 407.308594 1377.28125 "/>
<path fill-rule="nonzero" fill="rgb(19.993591%, 19.993591%, 19.993591%)" fill-opacity="1" d="M 399.535156 1379.230469 C 395.960938 1384.660156 392.328125 1390.039062 388.636719 1395.378906 C 386.824219 1398.011719 385.046875 1400.671875 383.234375 1403.289062 C 382.296875 1404.648438 381.386719 1406.019531 380.46875 1407.390625 C 379.652344 1408.601562 378.675781 1409.789062 378.1875 1411.171875 C 378.042969 1411.578125 378.574219 1411.78125 378.847656 1411.550781 C 379.972656 1410.628906 380.796875 1409.25 381.640625 1408.078125 C 382.609375 1406.738281 383.578125 1405.398438 384.515625 1404.039062 C 386.328125 1401.421875 388.148438 1398.789062 389.902344 1396.121094 C 393.46875 1390.699219 396.964844 1385.238281 400.402344 1379.738281 C 400.75 1379.191406 399.890625 1378.699219 399.535156 1379.230469 "/>
<path fill-rule="nonzero" fill="rgb(19.993591%, 19.993591%, 19.993591%)" fill-opacity="1" d="M 381.3125 1392.800781 C 379.988281 1396.46875 378.34375 1400.011719 376.433594 1403.410156 C 375.511719 1405.058594 374.519531 1406.660156 373.460938 1408.21875 C 372.949219 1408.980469 372.417969 1409.730469 371.886719 1410.46875 C 371.425781 1411.121094 370.691406 1411.738281 370.871094 1412.578125 C 370.90625 1412.75 371.09375 1412.890625 371.265625 1412.878906 C 372.039062 1412.839844 372.367188 1412.171875 372.796875 1411.589844 C 373.40625 1410.769531 373.992188 1409.921875 374.550781 1409.058594 C 375.636719 1407.378906 376.652344 1405.660156 377.585938 1403.890625 C 379.417969 1400.410156 380.894531 1396.75 382.074219 1393.011719 C 382.230469 1392.519531 381.484375 1392.320312 381.3125 1392.800781 "/>
<path fill-rule="nonzero" fill="rgb(19.993591%, 19.993591%, 19.993591%)" fill-opacity="1" d="M 374.503906 1389.75 C 372.648438 1394.679688 370.527344 1399.511719 368.101562 1404.191406 C 365.730469 1408.75 362.828125 1413.039062 360.570312 1417.648438 C 360.402344 1417.988281 360.851562 1418.410156 361.132812 1418.078125 C 364.519531 1414.089844 366.929688 1409.21875 369.214844 1404.550781 C 371.53125 1399.808594 373.570312 1394.949219 375.335938 1389.980469 C 375.523438 1389.449219 374.699219 1389.238281 374.503906 1389.75 "/>
<path fill-rule="nonzero" fill="rgb(19.993591%, 19.993591%, 19.993591%)" fill-opacity="1" d="M 360.878906 1403.488281 C 358.777344 1405.601562 356.949219 1407.980469 355.476562 1410.570312 C 354.765625 1411.820312 354.125 1413.121094 353.59375 1414.460938 C 353.304688 1415.171875 353.0625 1415.910156 352.839844 1416.648438 C 352.636719 1417.328125 352.445312 1417.980469 352.605469 1418.679688 C 352.664062 1418.941406 353.03125 1419.039062 353.207031 1418.839844 C 353.621094 1418.371094 353.792969 1417.808594 353.976562 1417.21875 C 354.195312 1416.519531 354.4375 1415.828125 354.703125 1415.140625 C 355.230469 1413.78125 355.789062 1412.441406 356.464844 1411.148438 C 357.8125 1408.578125 359.496094 1406.210938 361.472656 1404.078125 C 361.839844 1403.691406 361.261719 1403.109375 360.878906 1403.488281 "/>
<path fill-rule="nonzero" fill="rgb(19.993591%, 19.993591%, 19.993591%)" fill-opacity="1" d="M 354.566406 1401.601562 C 352.777344 1404.558594 351.195312 1407.628906 349.84375 1410.800781 C 348.582031 1413.769531 347.210938 1417.019531 346.808594 1420.230469 C 346.765625 1420.601562 347.378906 1420.769531 347.523438 1420.429688 C 348.144531 1418.960938 348.539062 1417.410156 349.066406 1415.898438 C 349.617188 1414.328125 350.199219 1412.761719 350.832031 1411.21875 C 352.121094 1408.058594 353.648438 1405.011719 355.371094 1402.070312 C 355.675781 1401.550781 354.875 1401.089844 354.566406 1401.601562 "/>
</svg>
